<?xml version="1.0" encoding="UTF-8"?>
<svg version="1.1" xmlns="http://www.w3.org/2000/svg" width="1024" height="1024">
<path d="M0 0 C337.92 0 675.84 0 1024 0 C1024 337.92 1024 675.84 1024 1024 C686.08 1024 348.16 1024 0 1024 C0 686.08 0 348.16 0 0 Z " fill="#FDFEFE" transform="translate(0,0)"/>
<path d="M0 0 C1.57792225 0.28214504 3.16194019 0.53203101 4.75 0.75 C21.00508605 3.68160368 34.82795998 10.68661002 49.0390625 18.88012695 C50.33945654 19.62276981 51.66058429 20.33029214 53 21 C53 21.66 53 22.32 53 23 C53.763125 23.268125 54.52625 23.53625 55.3125 23.8125 C57.9572594 24.98111462 59.00934798 26.00934798 61 28 C61.7425 28.2475 62.485 28.495 63.25 28.75 C66.72989556 30.33177071 68.70406101 32.60219198 71.31640625 35.34375 C72.99716642 37.13080277 72.99716642 37.13080277 75.4375 38.4375 C83.92291728 43.61153493 89.83965833 52.62488008 95.78271484 60.41113281 C96.80805403 61.74946162 97.84948955 63.07543626 98.89453125 64.3984375 C107 74.78164557 107 74.78164557 107 80 C107.66 80 108.32 80 109 80 C110.0098473 81.91149668 111.00754495 83.82941569 112 85.75 C112.556875 86.81734375 113.11375 87.8846875 113.6875 88.984375 C115 92 115 92 115 96 C115.66 96 116.32 96 117 96 C120.7109375 107.1328125 120.7109375 107.1328125 121.37841797 109.13891602 C121.90323468 110.71027414 122.43518919 112.27924565 122.96875 113.84765625 C123.3090625 114.88792969 123.649375 115.92820312 124 117 C124.2367041 117.70866211 124.4734082 118.41732422 124.71728516 119.14746094 C133.46572749 146.4356844 132.8423076 178.3207993 126 206 C125.61428781 207.64315982 125.22886757 209.28638821 124.84375 210.9296875 C123.95572386 214.63746976 123.0036011 218.32190873 122 222 C121.34 222 120.68 222 120 222 C119.855625 222.9075 119.71125 223.815 119.5625 224.75 C119.13590527 227.21476956 118.64925779 229.58847107 118 232 C117.34 232 116.68 232 116 232 C116.061875 233.1446875 116.061875 233.1446875 116.125 234.3125 C116 237 116 237 114 240 C113.34 240 112.68 240 112 240 C111.34 242.64 110.68 245.28 110 248 C109.34 248 108.68 248 108 248 C107.855625 248.94875 107.71125 249.8975 107.5625 250.875 C107 254 107 254 106 256 C105.34 256 104.68 256 104 256 C103.71125 256.7425 103.4225 257.485 103.125 258.25 C100.5 264.66666667 100.5 264.66666667 97 267 C96.67 267.99 96.34 268.98 96 270 C95.34 270 94.68 270 94 270 C93.731875 270.53625 93.46375 271.0725 93.1875 271.625 C91.09375 275.8125 91.09375 275.8125 89 280 C88.34 280 87.68 280 87 280 C86.67 280.99 86.34 281.98 86 283 C84.3984375 284.578125 84.3984375 284.578125 82.375 286.25 C78.84629906 289.22654809 75.61490259 292.36097517 72.4453125 295.71484375 C71 297 71 297 69 297 C68.773125 297.556875 68.54625 298.11375 68.3125 298.6875 C66.0696897 302.63911815 62.81792534 305.36796678 59.25 308.125 C55.25286535 311.36423639 52.23295383 315.4644969 49.05078125 319.4765625 C46.69420937 322.37626809 44.81709128 324.53907671 41.5625 326.375 C38.62707013 328.23649212 37.15133041 330.27919978 35 333 C33.28380754 334.55980083 31.51397604 336.04054032 29.734375 337.52734375 C26.56194832 340.22104838 23.71232192 343.06661265 21.1875 346.375 C19.31265903 348.62480917 17.52600177 350.33726699 15.31095886 352.22348022 C11.32106804 355.68096577 7.55809962 359.30639311 3.8371582 363.04931641 C3.17102509 363.7153035 2.50489197 364.38129059 1.818573 365.06745911 C-0.35640659 367.24312852 -2.52783292 369.42230692 -4.69921875 371.6015625 C-6.22258399 373.12679626 -7.74617272 374.65180684 -9.26997375 376.17660522 C-13.26342177 380.17385284 -17.25385898 384.17409278 -21.24365234 388.17498779 C-25.30189733 392.24346962 -29.36297707 396.30911965 -33.42382812 400.375 C-39.98043638 406.94037599 -46.53532228 413.50746557 -53.0879364 420.076828 C-54.21428823 421.20600635 -55.34189131 422.33393862 -56.47101402 423.46034622 C-57.91057357 424.90994964 -59.32419726 426.38517794 -60.73591614 427.86190796 C-63 430 -63 430 -66 431 C-66.68486725 432.32407669 -67.34870203 433.65909241 -68 435 C-69.33333333 436.33333333 -70.66666667 437.66666667 -72 439 C-72.33 439.99 -72.66 440.98 -73 442 C-74.99609375 443.82421875 -74.99609375 443.82421875 -77.4375 445.6875 C-78.24058594 446.31011719 -79.04367187 446.93273437 -79.87109375 447.57421875 C-82 449 -82 449 -84 449 C-84.3403125 450.051875 -84.3403125 450.051875 -84.6875 451.125 C-86.33841288 454.74128535 -88.2908835 457.08769976 -91 460 C-91.66 460 -92.32 460 -93 460 C-93 460.66 -93 461.32 -93 462 C-94.390625 463.3671875 -94.390625 463.3671875 -96.25 464.875 C-98.22990218 466.51503873 -100.11820336 468.11820336 -101.9375 469.9375 C-103.9055271 471.9055271 -105.92447492 473.77117005 -108 475.625 C-108.66 476.21539063 -109.32 476.80578125 -110 477.4140625 C-112 479 -112 479 -114.19140625 480.0703125 C-116.81854694 481.42076495 -116.94970417 483.28158726 -118 486 C-121.52379572 490.76188611 -124.76921996 493.61537998 -130.1875 495.9375 C-132.45644863 497.26757334 -133.03874684 498.59686711 -134 501 C-134.66 501 -135.32 501 -136 501 C-136.66 502.32 -137.32 503.64 -138 505 C-138.66 505 -139.32 505 -140 505 C-140.4021875 505.8353125 -140.4021875 505.8353125 -140.8125 506.6875 C-141.204375 507.450625 -141.59625 508.21375 -142 509 C-142.556875 510.1446875 -142.556875 510.1446875 -143.125 511.3125 C-145.85452309 515.22481643 -149.31960691 517.99857598 -153 521 C-153.80953125 521.66128906 -154.6190625 522.32257812 -155.453125 523.00390625 C-161.71085859 528 -161.71085859 528 -164 528 C-164 528.66 -164 529.32 -164 530 C-164.99 530 -165.98 530 -167 530 C-167 530.66 -167 531.32 -167 532 C-173.80524588 534.26841529 -179.54161986 532.94762762 -186.06765747 530.47906494 C-191.42822014 527.77521291 -195.23512496 523.57792995 -199.33984375 519.2734375 C-200.27689888 518.3181933 -201.21570134 517.36466039 -202.15614319 516.41275024 C-204.60486251 513.92633352 -207.03260229 511.42047807 -209.45532227 508.90875244 C-212.88401887 505.36074895 -216.33839689 501.83775683 -219.7938385 498.31582642 C-221.62710096 496.44395558 -223.45372726 494.56555724 -225.27293396 492.68002319 C-226.09801956 491.83219269 -226.92310516 490.98436218 -227.77319336 490.11083984 C-228.49502304 489.36345551 -229.21685272 488.61607117 -229.96055603 487.84603882 C-231.91276225 486.0789648 -233.66478133 485.1533519 -236 484 C-236.67010673 482.33471348 -237.33622642 480.66782099 -238 479 C-239.73061651 477.06037184 -241.43470703 475.28053676 -243.3125 473.5 C-244.25738281 472.5821875 -245.20226562 471.664375 -246.17578125 470.71875 C-247.10777344 469.8215625 -248.03976562 468.924375 -249 468 C-251.69817707 465.31895421 -254.37682022 462.61919826 -257.05078125 459.9140625 C-262.28048093 454.63344227 -267.49934093 449.43634378 -273.16015625 444.61328125 C-278.2525017 440.14801868 -282.82488497 435.3268709 -287 430 C-289.85120303 426.9903968 -292.85335403 424.25371037 -296 421.5625 C-299.39433575 418.63045251 -302.12654644 415.44814427 -305 412 C-307.1058103 410.15494669 -309.24390981 408.36765108 -311.42578125 406.61328125 C-313 405 -313 405 -313 402 C-314.07853745 401.65293503 -314.07853745 401.65293503 -315.17886353 401.29885864 C-318.55137139 399.74614716 -320.51892474 397.84844862 -323.13818359 395.21826172 C-323.62510178 394.73338791 -324.11201996 394.2485141 -324.61369324 393.74894714 C-326.21595688 392.14968237 -327.80723442 390.53995143 -329.3984375 388.9296875 C-330.51736913 387.80769432 -331.63689594 386.6862944 -332.75698853 385.56546021 C-335.10333867 383.21451125 -337.44470152 380.85874682 -339.78222656 378.49902344 C-342.75984136 375.49325775 -345.74593929 372.49611097 -348.73541832 369.50214958 C-351.60541051 366.62696432 -354.47072236 363.7471318 -357.3359375 360.8671875 C-358.14367174 360.05663218 -358.14367174 360.05663218 -358.96772385 359.229702 C-364.33151436 353.84171836 -369.6178358 348.43341683 -374.56781006 342.65655518 C-376.47620291 340.44919568 -378.49738702 338.37308228 -380.55859375 336.30859375 C-381.35716797 335.50873047 -382.15574219 334.70886719 -382.97851562 333.88476562 C-383.78998047 333.07716797 -384.60144531 332.26957031 -385.4375 331.4375 C-386.24509766 330.62603516 -387.05269531 329.81457031 -387.88476562 328.97851562 C-392.7595876 324.11154993 -397.75379206 319.46323601 -403 315 C-408.12982308 310.59043289 -412.82310798 306.17261276 -417.1875 301 C-419.16480327 298.81814812 -421.27340561 296.92570325 -423.5 295 C-427.75798139 291.29584389 -431.4110679 287.34693932 -435 283 C-436.0828125 281.69675781 -436.0828125 281.69675781 -437.1875 280.3671875 C-441.89500715 274.65774471 -446.50621759 268.87917129 -451 263 C-451.55945313 262.31808594 -452.11890625 261.63617188 -452.6953125 260.93359375 C-454 259 -454 259 -454 256 C-454.66 256 -455.32 256 -456 256 C-456 255.34 -456 254.68 -456 254 C-456.66 254 -457.32 254 -458 254 C-458.32871094 253.16082031 -458.32871094 253.16082031 -458.6640625 252.3046875 C-460.1808047 248.46967266 -461.70837218 244.65288588 -463.390625 240.88671875 C-470.82401882 224.2398289 -476.12605889 206.59414345 -478.5703125 188.51953125 C-478.73840845 186.06886914 -478.73840845 186.06886914 -480 185 C-480.10115294 182.07801607 -480.139688 179.18017246 -480.1328125 176.2578125 C-480.13376923 175.37850067 -480.13472595 174.49918884 -480.13571167 173.5932312 C-480.13639366 171.72865732 -480.13453809 169.86408107 -480.13037109 167.99951172 C-480.12503578 165.14415132 -480.13030887 162.28894914 -480.13671875 159.43359375 C-480.13605772 157.62499965 -480.13477605 155.81640565 -480.1328125 154.0078125 C-480.13483673 153.15148224 -480.13686096 152.29515198 -480.13894653 151.41287231 C-480.12556957 148.02901304 -480.07745133 145.232354 -479 142 C-478.63970181 139.5004313 -478.30551364 137.00616655 -478 134.5 C-477.13513514 127.40540541 -477.13513514 127.40540541 -476 124 C-475.34 124 -474.68 124 -474 124 C-474.020625 122.948125 -474.04125 121.89625 -474.0625 120.8125 C-474.01103198 117.67295096 -473.73482813 115.03116604 -473 112 C-472.34 112 -471.68 112 -471 112 C-470.87882813 111.34773438 -470.75765625 110.69546875 -470.6328125 110.0234375 C-469.71056011 105.21353658 -468.69832723 100.60974535 -467 96 C-466.34 96 -465.68 96 -465 96 C-464.87367188 95.27167969 -464.74734375 94.54335938 -464.6171875 93.79296875 C-461.46402407 79.5239064 -450.97169654 64.30185049 -440.875 53.9453125 C-438.94129983 52.03167136 -438.94129983 52.03167136 -437.375 49.7421875 C-436.92125 49.16726563 -436.4675 48.59234375 -436 48 C-435.34 48 -434.68 48 -434 48 C-433.67 47.01 -433.34 46.02 -433 45 C-431.46875 43.45703125 -431.46875 43.45703125 -429.5 41.8125 C-427.30374385 39.96037554 -425.12640082 38.11862616 -423.03125 36.15234375 C-414.69068425 28.34108313 -399.05803259 14 -387 14 C-387 13.34 -387 12.68 -387 12 C-379.48847313 8.39210127 -371.99243246 5.36321093 -364 3 C-363.29762207 2.78811035 -362.59524414 2.5762207 -361.87158203 2.35791016 C-348.52319673 -1.59203567 -335.88244035 -2.89139259 -322 -3 C-320.58654297 -3.02054443 -320.58654297 -3.02054443 -319.14453125 -3.04150391 C-313.58574787 -3.12018382 -308.03330357 -3.12364205 -302.47460938 -3.03710938 C-300.91872881 -3.01377731 -299.36269058 -2.99829748 -297.80664062 -2.99414062 C-285.7497442 -2.93645213 -275.31599219 0.13183075 -264 4 C-263.07783691 4.3088916 -262.15567383 4.6177832 -261.20556641 4.93603516 C-249.1971635 8.98559621 -237.94429964 13.59025442 -227 20 C-227 20.66 -227 21.32 -227 22 C-226.175 22.185625 -225.35 22.37125 -224.5 22.5625 C-220.4716372 24.21700615 -218.05522508 26.40706393 -214.88671875 29.328125 C-212.74955801 31.22192375 -210.46095408 32.56444346 -208 34 C-206.66666667 35.33333333 -205.33333333 36.66666667 -204 38 C-203.28457031 38.39058594 -202.56914062 38.78117187 -201.83203125 39.18359375 C-197.95005283 41.67341439 -194.9180681 44.79200727 -191.6875 48.0625 C-191.04232422 48.69994141 -190.39714844 49.33738281 -189.73242188 49.99414062 C-189.12333984 50.60580078 -188.51425781 51.21746094 -187.88671875 51.84765625 C-187.05466919 52.6830896 -187.05466919 52.6830896 -186.20581055 53.53540039 C-185 55 -185 55 -185 57 C-184.34 57 -183.68 57 -183 57 C-181.97388051 58.65071396 -180.97691857 60.31970006 -180 62 C-178.68681738 63.89958081 -178.68681738 63.89958081 -177 65 C-173.74388569 64.8837102 -172.73859293 63.74597292 -170.37109375 61.4453125 C-169.38581448 60.34513725 -168.40837647 59.23790597 -167.4375 58.125 C-166.36629839 56.93335189 -165.29334731 55.74327436 -164.21875 54.5546875 C-163.67992187 53.95624023 -163.14109375 53.35779297 -162.5859375 52.74121094 C-154.49522469 43.85836553 -145.67683962 34.52651838 -135.0625 28.6875 C-131.99901793 27.19459691 -131.99901793 27.19459691 -130.0625 25 C-126.97545295 22.00649983 -122.42433223 19 -118 19 C-118 18.34 -118 17.68 -118 17 C-112.66068812 14.13965435 -107.92056432 12.26869235 -102 11 C-102 10.34 -102 9.68 -102 9 C-95.26812223 6.29466594 -89.25398658 4.47567125 -82 4 C-82 3.34 -82 2.68 -82 2 C-57.56801302 -5.73116639 -24.55262552 -8.57284411 0 0 Z " fill="#20466D" transform="translate(687,247)"/>
<path d="M0 0 C0.33 0 0.66 0 1 0 C2.67546702 5.85350396 3.30768113 11.07919178 3.30078125 17.15234375 C3.30506638 18.01074356 3.3093515 18.86914337 3.31376648 19.7535553 C3.31948071 21.56461715 3.32003162 23.37570195 3.31567383 25.18676758 C3.3125444 27.89902122 3.3359028 30.61014883 3.36132812 33.32226562 C3.40007662 44.53055436 2.37343192 55.0452153 0 66 C-0.33 66 -0.66 66 -1 66 C-0.93941406 65.44054687 -0.87882813 64.88109375 -0.81640625 64.3046875 C-0.52727678 61.5379409 -0.26240233 58.76940834 0 56 C0.14308594 54.59814453 0.14308594 54.59814453 0.2890625 53.16796875 C1.03321907 44.71647629 1.1066063 36.29310909 1.125 27.8125 C1.12959229 26.60537354 1.13418457 25.39824707 1.13891602 24.15454102 C1.13690186 23.01686279 1.1348877 21.87918457 1.1328125 20.70703125 C1.13168457 19.6806958 1.13055664 18.65436035 1.12939453 17.59692383 C1.11081159 14.88472583 1.11081159 14.88472583 0 12 C-0.068991 9.93854893 -0.08467727 7.87498599 -0.0625 5.8125 C-0.05347656 4.72582031 -0.04445313 3.63914062 -0.03515625 2.51953125 C-0.02355469 1.68808594 -0.01195312 0.85664063 0 0 Z " fill="#768CA1" transform="translate(814,381)"/>
<path d="M0 0 C0.33 0 0.66 0 1 0 C0.86105852 3.10451549 0.712657 6.20850835 0.5625 9.3125 C0.50352539 10.63411133 0.50352539 10.63411133 0.44335938 11.98242188 C0.40146484 12.82998047 0.35957031 13.67753906 0.31640625 14.55078125 C0.27974854 15.33106689 0.24309082 16.11135254 0.20532227 16.9152832 C0 19 0 19 -1 22 C-1.08518867 24.80426452 -1.1158852 27.5829635 -1.09765625 30.38671875 C-1.09553383 31.61223198 -1.09553383 31.61223198 -1.09336853 32.86250305 C-1.08777294 35.47087268 -1.07522129 38.07915634 -1.0625 40.6875 C-1.05748443 42.45637897 -1.05292162 44.22525928 -1.04882812 45.99414062 C-1.03780496 50.32946019 -1.02054338 54.66471552 -1 59 C-1.66 58.67 -2.32 58.34 -3 58 C-3.02470254 52.35832031 -3.04286121 46.71667205 -3.05493164 41.07495117 C-3.05996315 39.15534924 -3.06678898 37.23575114 -3.07543945 35.31616211 C-3.08755669 32.55842136 -3.09324011 29.80073124 -3.09765625 27.04296875 C-3.10281754 26.18350143 -3.10797882 25.32403412 -3.11329651 24.43852234 C-3.11337204 23.63791885 -3.11344757 22.83731537 -3.11352539 22.01245117 C-3.115746 21.3085173 -3.11796661 20.60458344 -3.12025452 19.87931824 C-3 18 -3 18 -2 15 C-1.61637228 12.43781486 -1.26139695 9.88208247 -0.9375 7.3125 C-0.84662109 6.61060547 -0.75574219 5.90871094 -0.66210938 5.18554688 C-0.43874006 3.45737377 -0.21901504 1.72873033 0 0 Z " fill="#788FA5" transform="translate(210,374)"/>
<path d="M0 0 C0.33 0.99 0.66 1.98 1 3 C-2.82573388 6.92496041 -6.61997324 10.68179791 -11 14 C-11.66 13.67 -12.32 13.34 -13 13 C-8.71 8.71 -4.42 4.42 0 0 Z " fill="#B8C1CB" transform="translate(695,605)"/>
<path d="M0 0 C0.33 0 0.66 0 1 0 C0.67 2.97 0.34 5.94 0 9 C-0.66 9 -1.32 9 -2 9 C-2.33 10.98 -2.66 12.96 -3 15 C-4.12758089 11.61725734 -3.81750262 10.23221777 -3.0625 6.8125 C-2.86785156 5.91144531 -2.67320312 5.01039063 -2.47265625 4.08203125 C-2.31667969 3.39496094 -2.16070313 2.70789063 -2 2 C-1.34 2 -0.68 2 0 2 C0 1.34 0 0.68 0 0 Z " fill="#6C8296" transform="translate(809,460)"/>
<path d="M0 0 C6.16618181 -0.40214229 11.17745757 1.03181664 17 3 C13.87819599 3.96661363 11.47916205 3.98988909 8.25 3.5625 C7.05117188 3.40974609 7.05117188 3.40974609 5.828125 3.25390625 C5.22484375 3.17011719 4.6215625 3.08632812 4 3 C4 2.34 4 1.68 4 1 C2.68 0.67 1.36 0.34 0 0 Z " fill="#6D87A1" transform="translate(396,245)"/>
<path d="M0 0 C0.94928272 2.56306335 1.06529109 3.78780395 0.25 6.4375 C-1.02942736 9.06032608 -2.44744314 11.53002318 -4 14 C-5 12 -5 12 -4.44140625 9.8359375 C-4.15136719 9.02382813 -3.86132812 8.21171875 -3.5625 7.375 C-3.27503906 6.55773437 -2.98757812 5.74046875 -2.69140625 4.8984375 C-2.46324219 4.27195312 -2.23507813 3.64546875 -2 3 C-1.34 3 -0.68 3 0 3 C0 2.01 0 1.02 0 0 Z " fill="#3C5D80" transform="translate(222,340)"/>
<path d="M0 0 C0.33 0 0.66 0 1 0 C0.88557539 1.60495567 0.75805306 3.20898119 0.625 4.8125 C0.55539062 5.70582031 0.48578125 6.59914063 0.4140625 7.51953125 C0 10 0 10 -2 13 C-3.34939759 5.76232202 -3.34939759 5.76232202 -1.625 2 C-1.08875 1.34 -0.5525 0.68 0 0 Z " fill="#60778C" transform="translate(812,447)"/>
<path d="M0 0 C4.26086957 6.39130435 4.26086957 6.39130435 3.625 10.3125 C3.41875 10.869375 3.2125 11.42625 3 12 C3 11.34 3 10.68 3 10 C2.34 10 1.68 10 1 10 C0.37542727 6.56484998 0 3.50935186 0 0 Z " fill="#5B7793" transform="translate(803,343)"/>
<path d="M0 0 C0.33 0 0.66 0 1 0 C1.19294408 4.82360189 0.75747614 8.49646738 -1 13 C-1.33 13 -1.66 13 -2 13 C-2.19294408 8.17639811 -1.75747614 4.50353262 0 0 Z " fill="#1A4065" transform="translate(214,365)"/>
<path d="M0 0 C0.58203125 1.90625 0.58203125 1.90625 1 4 C-0.3125 5.5 -0.3125 5.5 -2 7 C-3.17574711 9.09989652 -3.17574711 9.09989652 -4 11 C-4.33 10.34 -4.66 9.68 -5 9 C-4.00390625 6.8359375 -4.00390625 6.8359375 -2.5625 4.375 C-2.08941406 3.55773437 -1.61632812 2.74046875 -1.12890625 1.8984375 C-0.75636719 1.27195312 -0.38382813 0.64546875 0 0 Z " fill="#65819C" transform="translate(231,322)"/>
<path d="M0 0 C0.66 0.33 1.32 0.66 2 1 C0.7934375 1.4021875 0.7934375 1.4021875 -0.4375 1.8125 C-1.283125 2.204375 -2.12875 2.59625 -3 3 C-3.33 3.99 -3.66 4.98 -4 6 C-5.32 5.67 -6.64 5.34 -8 5 C-6.71475739 4.13619741 -5.42157581 3.28419631 -4.125 2.4375 C-3.04605469 1.72400391 -3.04605469 1.72400391 -1.9453125 0.99609375 C-1.30335938 0.66738281 -0.66140625 0.33867187 0 0 Z " fill="#738EA8" transform="translate(289,265)"/>
</svg>
